{"title":"OSU_VS_Northwestern_Second_Half_480p_1-29-2011_TTL","uid":6137475,"size":1060097171,"categoryP":"video","categoryS":"tv_shows","magnet":"?xt=urn:btih:255df3223dc7dec9c60851f06ed2b563f696a49b&amp;dn=OSU_VS_Northwestern_Second_Half_480p_1-29-2011_TTL&amp;tr=udp%3A%2F%2Ftracker.openbittorrent.com%3A80&amp;tr=udp%3A%2F%2Fopen.demonii.com%3A1337&amp;tr=udp%3A%2F%2Ftracker.coppersurfer.tk%3A6969&amp;tr=udp%3A%2F%2Fexodus.desync.com%3A6969","seeders":0,"leechers":1,"uploader":"thetorrentlord","files":2,"time":1296362300,"description":"OSU_VS_Northwestern_Second_Half_480p_1-29-2011_TTL.avi\nFormat                           : AVI\nFormat/Info                      : Audio Video Interleave\nFile size                        : 1 011 MiB\nDuration                         : 47mn 16s\nOverall bit rate                 : 2 990 Kbps\nMovie name                       : OSU_VS_Northwestern_Second_Half_480p_1-29-2011_TTL.mpg\nDirector                         : created.with.SUPER(C).v2009.bld.35\nWriting application              : SUPER(C)   \n\nVideo\nID                               : 0\nFormat                           : MPEG-4 Visual\nFormat profile                   : Simple@L3\nFormat settings, BVOP            : No\nFormat settings, QPel            : No\nFormat settings, GMC             : No warppoints\nFormat settings, Matrix          : Default (H.263)\nCodec ID                         : XVID\nCodec ID/Hint                    : XviD\nDuration                         : 47mn 16s\nBit rate                         : 2 881 Kbps\nWidth                            : 624 pixels\nHeight                           : 352 pixels\nDisplay aspect ratio             : 16:9\nFrame rate                       : 23.976 fps\nColor space                      : YUV\nChroma subsampling               : 4:2:0\nBit depth                        : 8 bits\nScan type                        : Progressive\nBits/(Pixel*Frame)               : 0.547\nStream size                      : 974 MiB (96%)\nWriting library                  : XviD 1.1.2 (UTC 2006-11-01)\n\nAudio\nID                               : 1\nFormat                           : MPEG Audio\nFormat version                   : Version 1\nFormat profile                   : Layer 3\nMode                             : Joint stereo\nMode extension                   : MS Stereo\nCodec ID                         : 55\nCodec ID/Hint                    : MP3\nDuration                         : 47mn 16s\nBit rate mode                    : Constant\nBit rate                         : 96.0 Kbps\nChannel(s)                       : 2 channels\nSampling rate                    : 48.0 KHz\nStream size                      : 32.5 MiB (3%)\nAlignment                        : Aligned on interleaves\nInterleave, duration             : 24 ms (0.58 video frame)\nInterleave, preload duration     : 24 ms\n\n","torrent":{"xt":"urn:btih:255df3223dc7dec9c60851f06ed2b563f696a49b","amp;dn":"OSU_VS_Northwestern_Second_Half_480p_1-29-2011_TTL","amp;tr":["udp%3A%2F%2Ftracker.openbittorrent.com%3A80","udp%3A%2F%2Fopen.demonii.com%3A1337","udp%3A%2F%2Ftracker.coppersurfer.tk%3A6969","udp%3A%2F%2Fexodus.desync.com%3A6969"],"infoHash":"255df3223dc7dec9c60851f06ed2b563f696a49b","infoHashBuffer":{"type":"Buffer","data":[37,93,243,34,61,199,222,201,198,8,81,240,110,210,181,99,246,150,164,155]},"announce":[],"urlList":[]}}